<svg id="Layer_1" data-name="Layer 1" xmlns="http://www.w3.org/2000/svg" viewBox="0 0 1080 1080"><defs><style>.cls-1{fill:none;}.cls-2{fill:#233b72;}.cls-3{fill:#85c141;}.cls-4{fill:#579a43;}</style></defs><title>BZ Icon</title><path class="cls-1" d="M649.54,480.94l-.07,0h0l-.05,0-.16-.05-.18-.06c-.46-.16-1.21-.4-2.22-.69"/><path class="cls-1" d="M339.73,382.63h0"/><path class="cls-2" d="M406.87,632.54C452.4,441.05,367.62,393,339.73,382.63l141.16,44.79C472.4,543.2,406.87,632.54,406.87,632.54Z"/><polyline class="cls-1" points="649.62 480.97 649.54 480.94 649.47 480.92 649.46 480.91 649.41 480.89 649.25 480.84 649.07 480.78 646.85 480.09"/><path class="cls-1" d="M332.53,380.34h0"/><path class="cls-1" d="M339.73,382.63h0"/><path class="cls-1" d="M332.53,380.34h0"/><path class="cls-2" d="M646.85,480.09a108.84,108.84,0,0,0-23.93-3.77l-3.16-4.83Z"/><path class="cls-3" d="M428.12,611.72c109-170.42,60.39-340.83,60.39-340.83L709.26,608.28l-14-17.93a181.54,181.54,0,0,0-78.52-54.93c-33.77-11.91-65.23-8.31-98.25,5.65-41,17.34-69.8,48.41-91.54,72.35Z"/><path class="cls-4" d="M622.92,476.32c-38.85-2.11-114.24,11-186.29,121.54.92-1.56,1.83-3.11,2.71-4.66q2.55-4.43,5-8.85l1.47-2.71q2.93-5.45,5.64-10.86l1.12-2.23c1-2,1.93-3.94,2.86-5.9.44-.9.86-1.8,1.28-2.7Q462.27,548,467,536.28c.43-1.06.85-2.12,1.26-3.17q2.76-7.05,5.21-14c.38-1.07.76-2.15,1.13-3.22.94-2.75,1.86-5.49,2.74-8.21.38-1.19.76-2.38,1.13-3.56q2.5-8,4.65-15.8c.2-.72.39-1.45.58-2.18q2.09-7.72,3.83-15.31.78-3.33,1.48-6.62c.25-1.12.48-2.24.71-3.35,0-.17.07-.33.1-.49.27-1.28.53-2.55.77-3.82.18-.9.36-1.79.52-2.68,0-.14.06-.27.08-.4.13-.67.26-1.33.37-2a3.73,3.73,0,0,0,.09-.46q.45-2.44.87-4.86c.06-.31.11-.62.16-.93.16-.91.31-1.82.46-2.72q.3-1.75.57-3.51c.38-2.41.73-4.8,1.07-7.18l125,39.68Z"/></svg>