<svg xmlns="http://www.w3.org/2000/svg" viewBox="0 0 464.21 485.56"><defs><style>.cls-1{fill:#88c240;}.cls-2{fill:#25457c;}.cls-3{fill:none;}.cls-4{fill:#10193f;}.cls-5{fill:#233b73;}.cls-6{fill:#84c041;}.cls-7{fill:#85c140;}.cls-8{fill:#569943;}</style></defs><title>Asset 2</title><g id="Layer_2" data-name="Layer 2"><g id="Layer_1-2" data-name="Layer 1"><path class="cls-1" d="M221.23,297.39a11.2,11.2,0,0,0-1.1-.54,13.26,13.26,0,0,0-7.68-24.07h-17v53.91H213.8a15.59,15.59,0,0,0,7.43-29.3ZM206,283.2h3.7a5,5,0,0,1,1.23.14,5.41,5.41,0,0,1,0,10.53,5.52,5.52,0,0,1-1.23.14H206Zm7.3,33.45c-.22,0-.43,0-.66,0H206V304h6.65c.23,0,.44,0,.66,0a6.33,6.33,0,0,1,0,12.59Z"/><polygon class="cls-1" points="250.37 316.27 267.95 316.27 267.95 326.69 234.36 326.69 238.98 316.27 253.63 283.19 236.49 283.19 236.49 272.78 269.63 272.78 265.02 283.19 250.37 316.27"/><path class="cls-1" d="M160.24,383.73l-.65-1.69-3.76-9.72-12.7-32.92H132l-12.19,32.92L116.24,382l-.63,1.69-3.6,9.72h10.85l3.61-9.72.62-1.69h21.58l.65,1.69,3.75,9.72H164Zm-29.55-11.41,1.4-3.78,5.57-15L143,367.45l1.88,4.87Z"/><path class="cls-2" d="M100.64,446.32,100,444.6l-3.75-9.93-12.7-33.6H72.43l-12.19,33.6-3.6,9.93L56,446.32l-3.59,9.93H63.27l3.6-9.93.62-1.72H89.07l.65,1.72,3.75,9.93h10.92ZM71.1,434l7-18.54L85.32,434Z"/><path class="cls-2" d="M293.21,446.32l-.65-1.72-3.75-9.93-12.7-33.6H265l-12.19,33.6-3.6,9.93-.63,1.72L245,456.25h10.85l3.6-9.93.62-1.72h21.58l.65,1.72,3.75,9.93H297ZM263.67,434l7-18.54L277.89,434Z"/><path class="cls-1" d="M342.57,383.73l-.64-1.69-3.76-9.72-12.7-32.92H314.36l-12.19,32.92-3.6,9.72-.62,1.69-3.6,9.72H305.2l3.6-9.72.63-1.69H331l.65,1.69,3.75,9.72h10.92ZM313,372.32l1.4-3.78,5.57-15,5.38,13.95,1.88,4.87Z"/><polygon class="cls-1" points="196.87 383.1 196.87 393.45 171.28 393.45 171.28 339.4 181.93 339.4 181.93 383.1 196.87 383.1"/><path class="cls-1" d="M223.14,370.5v0H222C222.41,370.54,222.78,370.53,223.14,370.5Z"/><path class="cls-1" d="M223.14,339.4v.05a10,10,0,0,0-1.1-.05Z"/><path class="cls-1" d="M223.14,339.45a10,10,0,0,0-1.1-.05H204.76v54.05h10.65V370.54H222c.37,0,.74,0,1.1,0a15.56,15.56,0,0,0,0-31.05Zm0,20.93a5.35,5.35,0,0,1-1.75.29h-6V349.89h6a5.39,5.39,0,0,1,1.75,10.49Z"/><polygon class="cls-1" points="285.83 339.43 285.83 393.45 275.19 393.45 275.19 370 257.44 370 257.44 393.45 246.8 393.45 246.8 339.43 257.44 339.43 257.44 359.56 275.19 359.56 275.19 339.43 285.83 339.43"/><polygon class="cls-2" points="157.2 401.22 137.18 454.76 136.64 456.21 131.88 456.23 127.12 456.21 126.57 454.76 106.55 401.22 118.28 401.07 131.88 439.7 145.47 401.07 157.2 401.22"/><polygon class="cls-2" points="43.99 401.07 43.99 456.25 33.12 456.25 33.12 456.25 22.81 440.33 10.87 421.88 10.87 456.25 0 456.25 0 401.07 10.87 401.07 17.32 411.03 33.12 435.43 33.12 401.07 43.99 401.07"/><polygon class="cls-2" points="464.21 401.07 464.21 456.25 453.34 456.25 453.34 456.25 443.03 440.33 431.09 421.88 431.09 456.25 420.22 456.25 420.22 401.07 431.09 401.07 437.54 411.03 453.34 435.43 453.34 401.07 464.21 401.07"/><rect class="cls-2" x="163.36" y="401.07" width="11.46" height="55.16"/><path class="cls-3" d="M218.19,400.45A29.85,29.85,0,0,1,236,411.08"/><path class="cls-2" d="M240,432.34a23.12,23.12,0,0,1-1.28,6.72A23.87,23.87,0,0,0,240,432.34Z"/><path class="cls-2" d="M240,431.35c0,.33,0,.66,0,1a23.87,23.87,0,0,1-1.28,6.72,27.77,27.77,0,0,1-23.63,18.2l-1.09.08c-.51,0-1,0-1.53,0-16.39,0-29.68-12.87-29.68-28.73s13.29-28.73,29.68-28.73a30.73,30.73,0,0,1,5.72.53A29.85,29.85,0,0,1,236,411.08l-7.77,7.56a19,19,0,0,0-15.72-8.2q-.45,0-.9,0c-10,.45-17.91,8.42-17.91,18.18,0,10.06,8.42,18.21,18.81,18.21q.45,0,.9,0l.44,0a17.08,17.08,0,0,0,13.11-7.75H211.59V428.32h28.2A22.31,22.31,0,0,1,240,431.35Z"/><polygon class="cls-2" points="329.64 401.07 329.64 412.53 319.82 412.53 319.82 456.25 308.35 456.25 308.35 412.53 298.35 412.53 298.35 401.07 329.64 401.07"/><rect class="cls-2" x="335.1" y="401.07" width="10.92" height="55.18"/><path class="cls-2" d="M383,399.92a28.78,28.78,0,1,0,28.78,28.77A28.77,28.77,0,0,0,383,399.92Zm0,46.62a17.85,17.85,0,1,1,17.84-17.85A17.85,17.85,0,0,1,383,446.54Z"/><path class="cls-4" d="M44.57,462.71h.08a1.55,1.55,0,0,1,1.54,1.79l-1,6.81,10.33,0,1.14-7.3a1.57,1.57,0,0,1,1.53-1.32h0a1.56,1.56,0,0,1,1.54,1.8l-3,19.12a1.55,1.55,0,0,1-1.51,1.3h0a1.55,1.55,0,0,1-1.53-1.78L55,474.21l-10.33,0-1.44,9.37a1.56,1.56,0,0,1-1.52,1.31h-.16A1.55,1.55,0,0,1,40,483.14L43,464A1.55,1.55,0,0,1,44.57,462.71Z"/><path class="cls-4" d="M65.19,467.92h.07A1.7,1.7,0,0,1,67,469.84l-1.09,7.48s-1,4.23,2.88,4.48a4.09,4.09,0,0,0,4.71-3.89l1-8.58a1.74,1.74,0,0,1,1.73-1.44h0A1.7,1.7,0,0,1,78,469.8l-1.26,8.52A7.44,7.44,0,0,1,74,483.24a8.61,8.61,0,0,1-5.59,1.85,6.65,6.65,0,0,1-4.5-1.6,4.66,4.66,0,0,1-1.77-3.76,17.69,17.69,0,0,1,.12-2.27c.07-.62.14-1.07.15-1.2l1-6.9A1.73,1.73,0,0,1,65.19,467.92Z"/><path class="cls-4" d="M128.5,483.23l1.93-14.42a1.7,1.7,0,0,1,1.68-1.47h0a1.68,1.68,0,0,1,1.66,2v.08a6.45,6.45,0,0,1,1.82-1.29,6,6,0,0,1,2.94-.62,6.5,6.5,0,0,1,3.45.91,4.42,4.42,0,0,1,2.37,3.89c0,.32-.11,1.12-.14,1.31l-1.28,10a1.52,1.52,0,0,1-1.53,1.32h0a1.52,1.52,0,0,1-1.48-1.71s1.19-8.22,1.13-9.62c0-.9.09-1.64-.72-2.36a3.79,3.79,0,0,0-2.35-.68,5.31,5.31,0,0,0-4,2.14c-1,1.41-1.23,2.64-1.56,5l-.82,6a1.52,1.52,0,0,1-1.47,1.31H130A1.51,1.51,0,0,1,128.5,483.23Z"/><path class="cls-1" d="M359.17,483.23l1.94-14.42a1.68,1.68,0,0,1,1.67-1.47h0a1.7,1.7,0,0,1,1.67,2l0,.08a6.75,6.75,0,0,1,1.82-1.29,6.06,6.06,0,0,1,2.94-.62,6.48,6.48,0,0,1,3.45.91,4.42,4.42,0,0,1,2.37,3.89c0,.32-.11,1.12-.14,1.31l-1.28,10a1.51,1.51,0,0,1-1.52,1.32h0a1.52,1.52,0,0,1-1.49-1.71s1.48-8.38,1.37-10.13a2.87,2.87,0,0,0-1-2.48,4.14,4.14,0,0,0-2.33-.59,5.29,5.29,0,0,0-4,2.14c-1,1.41-1.24,3.18-1.56,5.5l-.83,6a1.52,1.52,0,0,1-1.47,1.31h-.05A1.52,1.52,0,0,1,359.17,483.23Z"/><path class="cls-4" d="M159.71,462.32h7.35a1.51,1.51,0,0,1,1.5,1.72h0a1.52,1.52,0,0,1-1.49,1.3H161l-.8,5.67h5.6a1.53,1.53,0,0,1,1.52,1.74h0a1.53,1.53,0,0,1-1.51,1.31h-6l-1.35,9.56a1.51,1.51,0,0,1-1.5,1.3h0a1.51,1.51,0,0,1-1.5-1.73l2.84-19.58A1.51,1.51,0,0,1,159.71,462.32Z"/><path class="cls-4" d="M187,467.76a1.5,1.5,0,0,0-1.48,1.3l-.17,1.41c-1.31-2-3.39-2.85-6.21-2.85a9.45,9.45,0,0,0-6.83,3,8.86,8.86,0,0,0-2.55,6.22,8.6,8.6,0,0,0,2.19,6,8.31,8.31,0,0,0,6.18,2.41,7.84,7.84,0,0,0,2.63-.39,6.43,6.43,0,0,0,2.53-1.67,1.43,1.43,0,0,0,1.42,1.58h.37a1.42,1.42,0,0,0,1.41-1.22l2-14.14A1.48,1.48,0,0,0,187,467.76Zm-4.12,13.12a7.28,7.28,0,0,1-4.6,2,5.31,5.31,0,0,1-5.55-6.05,7.1,7.1,0,0,1,1.88-4.38,6.3,6.3,0,0,1,4.51-2.11,5.9,5.9,0,0,1,4.35,1.5,4.06,4.06,0,0,1,1.16,3.79C184.41,477.48,183.94,479.78,182.85,480.88Z"/><path class="cls-4" d="M124.79,467.76a1.49,1.49,0,0,0-1.47,1.3l-.18,1.41c-1.31-2-3.39-2.85-6.2-2.85a9.45,9.45,0,0,0-6.83,3,8.82,8.82,0,0,0-2.55,6.22,8.54,8.54,0,0,0,2.18,6,8.34,8.34,0,0,0,6.19,2.41,7.88,7.88,0,0,0,2.63-.39,6.5,6.5,0,0,0,2.53-1.67,1.43,1.43,0,0,0,1.42,1.58h.37a1.42,1.42,0,0,0,1.41-1.22l2-14.14A1.48,1.48,0,0,0,124.79,467.76Zm-4.11,13.12a7.28,7.28,0,0,1-4.61,2,5.32,5.32,0,0,1-5.55-6.05,7.11,7.11,0,0,1,1.89-4.38,6.29,6.29,0,0,1,4.5-2.11,5.91,5.91,0,0,1,4.36,1.5,4.06,4.06,0,0,1,1.16,3.79C122.24,477.48,121.76,479.78,120.68,480.88Z"/><path class="cls-4" d="M215.84,462.26h0a1.47,1.47,0,0,1,1.45,1.69l-.65,4.17h1.87a1.37,1.37,0,0,1,1.37,1.56h0a1.37,1.37,0,0,1-1.36,1.19h-2.29l-2,12.8a1.47,1.47,0,0,1-1.46,1.25h0a1.48,1.48,0,0,1-1.46-1.71l1.92-12.33h-1.49a1.38,1.38,0,0,1-1.37-1.57h0a1.38,1.38,0,0,1,1.36-1.18h1.91l.73-4.62A1.46,1.46,0,0,1,215.84,462.26Z"/><path class="cls-4" d="M220.06,476.84a8.81,8.81,0,0,1,2.59-6.4,8.56,8.56,0,0,1,6.3-2.67,8.35,8.35,0,0,1,6.11,2.41,8.18,8.18,0,0,1,2.46,6A8.69,8.69,0,0,1,235,482.6a8.6,8.6,0,0,1-6.36,2.55,8.47,8.47,0,0,1-6.16-2.32A8,8,0,0,1,220.06,476.84Zm9-6.67a6.21,6.21,0,0,0-4.66,2,6.5,6.5,0,0,0-1.87,4.68,5.91,5.91,0,0,0,1.6,4.33,5.67,5.67,0,0,0,4.24,1.62,6.59,6.59,0,0,0,4.78-1.78,6.76,6.76,0,0,0,.15-9.06A5.59,5.59,0,0,0,229.1,470.17Z"/><path class="cls-4" d="M249.72,469.47a1.52,1.52,0,0,1-1.45,1.2,7.25,7.25,0,0,0-1.37.17,3.69,3.69,0,0,0-2.29,1.2,7.69,7.69,0,0,0-1.3,3.72l-1.41,7.93a1.5,1.5,0,0,1-3-.48l2.15-14.54c0-.08,0-.19,0-.29v0l0-.31a1.61,1.61,0,0,1,3.17.25,1.69,1.69,0,0,1,0,.23v.05c.23-.28,1.19-.95,3.55-.95h.38A1.53,1.53,0,0,1,249.72,469.47Z"/><path class="cls-1" d="M269.53,462.49h3.78a8.72,8.72,0,0,1,5.69,1.73,5.73,5.73,0,0,1,2.13,4.65,6.09,6.09,0,0,1-1.59,4.1,7.83,7.83,0,0,1-4.29,2.48l3.75,7.14a1.44,1.44,0,0,1-1.26,2.1h0a1.45,1.45,0,0,1-1.27-.77l-4.32-8.22-1.77,0-1.16,7.88a1.37,1.37,0,0,1-1.34,1.16h0a1.36,1.36,0,0,1-1.34-1.55Zm2.37,2.25-1.21,8.68q4.19,0,5.91-1.35a4,4,0,0,0,1.73-3.26,3.79,3.79,0,0,0-.83-2.36,3.86,3.86,0,0,0-2-1.38A14.55,14.55,0,0,0,271.9,464.74Z"/><path class="cls-1" d="M300.59,477.12H286.77a4.91,4.91,0,0,0,1.48,4.17,6.14,6.14,0,0,0,4.3,1.47,6.23,6.23,0,0,0,4.39-2,1.15,1.15,0,0,1,1.6,0h0a1.19,1.19,0,0,1,0,1.71,9.08,9.08,0,0,1-12.06,0,7.75,7.75,0,0,1-2.39-5.84,8.41,8.41,0,0,1,2.61-6.22,8.73,8.73,0,0,1,6.34-2.59,7.35,7.35,0,0,1,5.42,2.26,7.54,7.54,0,0,1,2.25,5.48A12.18,12.18,0,0,1,300.59,477.12Zm-13.82-1.9h11.55c-.65-3.43-2.49-5.15-5.51-5.14a5.89,5.89,0,0,0-3.9,1.36A6.48,6.48,0,0,0,286.77,475.22Z"/><path class="cls-1" d="M340.66,477.12H326.83a4.88,4.88,0,0,0,1.49,4.17,6.1,6.1,0,0,0,4.29,1.47,6.23,6.23,0,0,0,4.39-2,1.15,1.15,0,0,1,1.6,0h0a1.19,1.19,0,0,1,0,1.71,9.08,9.08,0,0,1-12.06,0,7.75,7.75,0,0,1-2.39-5.84,8.41,8.41,0,0,1,2.61-6.22,8.73,8.73,0,0,1,6.34-2.59,7.35,7.35,0,0,1,5.42,2.26,7.54,7.54,0,0,1,2.25,5.48A14.55,14.55,0,0,1,340.66,477.12Zm-13.83-1.9h11.55c-.65-3.43-2.49-5.15-5.51-5.14a5.89,5.89,0,0,0-3.9,1.36A6.48,6.48,0,0,0,326.83,475.22Z"/><path class="cls-1" d="M394.32,477.12H380.49A4.88,4.88,0,0,0,382,481.3a6.1,6.1,0,0,0,4.29,1.47,6.23,6.23,0,0,0,4.39-2,1.15,1.15,0,0,1,1.6,0h0a1.19,1.19,0,0,1,0,1.71,9.08,9.08,0,0,1-12.06,0,7.75,7.75,0,0,1-2.39-5.84,8.41,8.41,0,0,1,2.61-6.22,8.73,8.73,0,0,1,6.34-2.59,7.35,7.35,0,0,1,5.42,2.26,7.54,7.54,0,0,1,2.25,5.48A14.55,14.55,0,0,1,394.32,477.12Zm-13.83-1.9H392c-.65-3.43-2.49-5.15-5.51-5.14a5.89,5.89,0,0,0-3.9,1.36A6.53,6.53,0,0,0,380.49,475.22Z"/><path class="cls-1" d="M351.68,461.53a1.8,1.8,0,0,1,.74,2.38,2.27,2.27,0,0,1-.27.44s-.07.12-.12.15-.27-.06-.36-.11a1.76,1.76,0,0,0-1.16-.27,1.52,1.52,0,0,0-1,.6,3.65,3.65,0,0,0-.56,1.6c-.09.56-.15,1.13-.2,1.69,0,0,0,.05,0,.07h1.83a1.39,1.39,0,0,1,1.43,1.26,1.38,1.38,0,0,1-1.37,1.49h-2.3l-1.62,12.81a1.47,1.47,0,0,1-1.46,1.28h0a1.47,1.47,0,0,1-1.46-1.65l1.55-12.43h-1.09a1.4,1.4,0,0,1-1.43-1.26,1.37,1.37,0,0,1,1.37-1.49H346c.29-1.57.33-3.27,1.22-4.62a4.6,4.6,0,0,1,3.61-2.17A2,2,0,0,1,351.68,461.53Z"/><path class="cls-4" d="M94.88,474.25l0,.06h0A.11.11,0,0,1,94.88,474.25Z"/><path class="cls-4" d="M105.34,472.44v-.11"/><path class="cls-3" d="M325.61,191.63l-.07,0h0l0,0-.15-.05-.16,0c-.42-.15-1.1-.37-2-.63"/><path class="cls-3" d="M43,101.94h0"/><path class="cls-5" d="M104.22,329.94c41.54-174.7-35.81-218.52-61.25-228l128.78,40.87C164,248.43,104.22,329.94,104.22,329.94Z"/><polyline class="cls-3" points="325.68 191.66 325.61 191.63 325.54 191.61 325.53 191.61 325.49 191.59 325.34 191.54 325.18 191.49 323.16 190.86"/><path class="cls-3" d="M36.4,99.86h0"/><path class="cls-3" d="M43,101.94h0"/><path class="cls-3" d="M36.4,99.86h0"/><path class="cls-5" d="M323.16,190.86a100.15,100.15,0,0,0-21.83-3.44l-2.89-4.4Z"/><path class="cls-6" d="M123.6,311C223.05,155.47,178.7,0,178.7,0L380.09,307.81l-12.8-16.36a165.64,165.64,0,0,0-71.63-50.11c-30.81-10.87-59.51-7.59-89.63,5.15-37.43,15.82-63.68,44.17-83.52,66Z"/><path class="cls-7" d="M27.7,135.08a10.83,10.83,0,1,0,10.83,10.83A10.84,10.84,0,0,0,27.7,135.08Zm0,19.66a8.82,8.82,0,1,1,8.82-8.83A8.82,8.82,0,0,1,27.7,154.74Z"/><path class="cls-7" d="M23.44,140.22l4.13.08c2.62,0,4.57.88,4.53,3.26s-2,3.3-4.64,3.25l-2.16,0-.08,4.46-2,0Zm3.81,5.24c1.86,0,2.89-.62,2.91-1.94s-1-1.84-2.85-1.88l-1.92,0-.07,3.81Zm1.32,0,3.83,5.94-2.21,0-3.11-5Z"/><path class="cls-4" d="M99.74,467.61a7.05,7.05,0,0,0-6,3.18,4,4,0,0,0-4-3.18,5.88,5.88,0,0,0-5,1.86,1.63,1.63,0,0,0-1.63-1.86,1.6,1.6,0,0,0-1.12.52,2.19,2.19,0,0,0-.58,1.1L81,472.1,79.7,483.29a1.46,1.46,0,0,0,2.4,1.28,1.44,1.44,0,0,0,.49-.86l1.2-8.37c.13-.71.73-5,4.74-4.81,2.48.12,3.09,1.8,3.07,3.78s-1,9-1,9A1.45,1.45,0,0,0,92,484.92h.08a1.45,1.45,0,0,0,1.44-1.25l1-7.21a12.47,12.47,0,0,1,1-3.51,5,5,0,0,1,1.73-1.89h0a3.93,3.93,0,0,1,2-.54,3.4,3.4,0,0,1,1.8.44,2.19,2.19,0,0,1,1,1.95c0,2.2-.93,10.44-.93,10.44-.06.86.18,1.54,1.49,1.58a1.44,1.44,0,0,0,1.06-.34,1.21,1.21,0,0,0,.38-.9l1.18-11.15S105.68,467.85,99.74,467.61Zm-4.88,6.7h0a.11.11,0,0,1,0-.06Z"/><path class="cls-4" d="M206.72,472.81a1.42,1.42,0,0,0,.16-2.1,9.87,9.87,0,0,0-6.86-2.88c-5.26-.11-9.61,3.73-9.71,8.59s4.09,8.87,9.35,9a9.92,9.92,0,0,0,6.43-2.12,1.42,1.42,0,0,0,.2-2h0a1.39,1.39,0,0,0-2-.19,6.85,6.85,0,0,1-4.61,1.6,6.1,6.1,0,1,1,.26-12.15,6.81,6.81,0,0,1,4.83,2.09,1.43,1.43,0,0,0,1.92.18Z"/><circle class="cls-4" cx="250.96" cy="483.1" r="2.46"/><path class="cls-1" d="M321.14,462.26a1.2,1.2,0,0,0-1.19,1l-1.11,8c.05-.3-.47-.83-.65-1a7.48,7.48,0,0,0-3.13-2.13c-5.4-1.95-10.36,2.85-11,8a8.27,8.27,0,0,0,1.67,6.47c2.95,3.38,8.46,3.07,11.57.11l-.11.81a1.21,1.21,0,0,0,1.2,1.39h0a1.22,1.22,0,0,0,1.21-1.05q1.14-8.24,2.27-16.45c.18-1.26.33-2.53.51-3.79a1.21,1.21,0,0,0-1.2-1.37Zm-8.52,20.9a6.13,6.13,0,0,1-6.46-8.19,7.13,7.13,0,0,1,2.94-4.08,6.44,6.44,0,0,1,5.15-.79,5,5,0,0,1,3.51,3.29,8.38,8.38,0,0,1,0,3.89,10,10,0,0,1-1.06,3.52A5.17,5.17,0,0,1,312.62,483.16Z"/><path class="cls-1" d="M414.83,462.26a1.2,1.2,0,0,0-1.19,1l-1.1,8c0-.3-.47-.83-.65-1a7.66,7.66,0,0,0-.92-.88,7.33,7.33,0,0,0-2.21-1.25c-5.41-1.95-10.37,2.85-11.05,8a8.27,8.27,0,0,0,1.68,6.47c2.94,3.38,8.45,3.07,11.57.11l-.12.81a1.23,1.23,0,0,0,1.21,1.39h0a1.23,1.23,0,0,0,1.21-1.05q1.13-8.24,2.27-16.45c.17-1.26.32-2.53.5-3.79a1.21,1.21,0,0,0-1.2-1.37Zm-8.51,20.9a6.59,6.59,0,0,1-6-3,6.65,6.65,0,0,1-.46-5.19,7.13,7.13,0,0,1,2.94-4.08,6.45,6.45,0,0,1,5.15-.79,5.06,5.06,0,0,1,3.52,3.29,8.38,8.38,0,0,1,0,3.89,10,10,0,0,1-1.05,3.52A5.18,5.18,0,0,1,406.32,483.16Z"/><path class="cls-1" d="M355,483.93a1.16,1.16,0,0,1-1.15,1h0a1.15,1.15,0,0,1-1.14-1.32l2.07-14.44a1.22,1.22,0,0,1,1.25-1h0a1.21,1.21,0,0,1,1.16,1.4Z"/><circle class="cls-1" cx="356.72" cy="463.72" r="1.81"/><path class="cls-8" d="M301.33,187.42c-35.45-1.92-104.23,10.05-170,110.89.84-1.43,1.67-2.84,2.48-4.26q2.33-4,4.52-8.07l1.34-2.47q2.67-5,5.15-9.91l1-2c.88-1.8,1.76-3.6,2.61-5.39.4-.82.78-1.64,1.17-2.46q5.1-10.86,9.37-21.59c.4-1,.78-1.94,1.15-2.9q2.52-6.42,4.76-12.78l1-2.94q1.29-3.75,2.5-7.49c.34-1.08.69-2.17,1-3.24q2.28-7.28,4.24-14.42c.18-.65.36-1.32.53-2,1.27-4.69,2.43-9.36,3.49-14,.48-2,.93-4,1.35-6,.23-1,.44-2.05.65-3.06a3.58,3.58,0,0,0,.09-.45c.25-1.16.49-2.32.71-3.48.16-.82.32-1.63.47-2.45,0-.12.05-.24.07-.36.12-.61.24-1.22.34-1.82a2.84,2.84,0,0,0,.08-.42c.28-1.48.54-3,.8-4.43.05-.28.1-.57.14-.85.15-.83.29-1.66.42-2.48.18-1.07.36-2.14.52-3.2.35-2.2.67-4.38,1-6.55L298.44,183Z"/></g></g></svg>