<svg xmlns="http://www.w3.org/2000/svg" viewBox="0 0 469.36 459.35"><defs><style>.cls-1{fill:#ffffff;}.cls-2{fill:#ffffff;}.cls-3{fill:#ffffff;}</style></defs><title>Asset 3</title><g id="Layer_2" data-name="Layer 2"><g id="Layer_1-2" data-name="Layer 1"><path class="cls-1" d="M85.28,459.35C143.11,216.13,35.42,155.13,0,141.93l179.29,56.9C168.5,345.87,85.28,459.35,85.28,459.35Z"/><path class="cls-1" d="M390.09,265.73a138.27,138.27,0,0,0-30.4-4.79l-4-6.14Z"/><path class="cls-2" d="M112.26,432.91C250.72,216.45,189,0,189,0l280.4,428.54-17.83-22.77A230.59,230.59,0,0,0,351.8,336C308.91,320.87,269,325.44,227,343.17c-52.11,22-88.65,61.49-116.27,91.89Z"/><path class="cls-3" d="M359.69,260.94c-49.34-2.68-145.1,14-236.61,154.37q1.76-3,3.44-5.92,3.24-5.61,6.3-11.24c.62-1.14,1.25-2.28,1.87-3.44q3.7-6.91,7.16-13.79l1.42-2.84c1.24-2.5,2.46-5,3.64-7.49.56-1.14,1.09-2.29,1.62-3.43q7.11-15.14,13.06-30.06c.55-1.35,1.08-2.7,1.6-4,2.34-6,4.53-11.9,6.62-17.8.48-1.35,1-2.73,1.43-4.09,1.2-3.49,2.37-7,3.48-10.42.49-1.51,1-3,1.44-4.53q3.18-10.11,5.9-20.06c.26-.92.5-1.85.74-2.77q2.65-9.81,4.87-19.45c.66-2.82,1.28-5.62,1.88-8.41.31-1.42.61-2.84.9-4.25.05-.22.09-.42.12-.62.35-1.63.68-3.24,1-4.86.23-1.14.46-2.27.66-3.4a5.09,5.09,0,0,0,.1-.51c.17-.85.33-1.69.47-2.53a4,4,0,0,0,.12-.58q.57-3.1,1.1-6.17c.08-.4.14-.79.21-1.18.2-1.16.39-2.32.58-3.46.26-1.48.5-3,.73-4.46.48-3.06.92-6.09,1.35-9.12l158.81,50.4Z"/></g></g></svg>
